<?xml version="1.0" encoding="UTF-8"?>
<svg width="17px" height="18px" viewBox="0 0 17 18" version="1.1" xmlns="http://www.w3.org/2000/svg" xmlns:xlink="http://www.w3.org/1999/xlink">
    <title>1B4F5920-E917-4096-BC85-8B4B81560D38</title>
    <g id="Page-1-Duplicate" stroke="none" stroke-width="1" fill="none" fill-rule="evenodd">
        <g id="KPIs---Profitability---Enter-data" transform="translate(-767.000000, -406.000000)" fill="#2D2D2D" fill-rule="nonzero">
            <g id="Group-20" transform="translate(310.000000, 303.000000)">
                <g id="Group-15-Copy" transform="translate(36.000000, 75.000000)">
                    <g id="calendar" transform="translate(421.000000, 28.000000)">
                        <path d="M2.34077435,18 L14.6592256,18 C15.9505688,18 17,16.9299909 17,15.6133264 L17,3.71998219 C17,2.40331769 15.9505688,1.33330859 14.6592256,1.33330859 L13.7307776,1.33330859 L13.7307776,0.666654296 C13.7307776,0.2999833 13.4365089,0 13.0768895,0 C12.7172701,0 12.4230559,0.2999833 12.4230559,0.666654296 L12.4230559,1.33330859 L4.57694408,1.33330859 L4.57694408,0.666654296 C4.57694408,0.2999833 4.2826753,0 3.92305592,0 C3.56343655,0 3.26922237,0.2999833 3.26922237,0.666654296 L3.26922237,1.33330859 L2.34077435,1.33330859 C1.04943125,1.33330859 0,2.40331769 0,3.71998219 L0,15.6133264 C0,16.9299909 1.04943125,18 2.34077435,18 Z M1.30772171,3.71998219 C1.30772171,3.13999963 1.77194571,2.66667285 2.34077435,2.66667285 L3.26922237,2.66667285 L3.26922237,3.33332715 C3.26922237,3.69999814 3.56343655,3.99998144 3.92305592,3.99998144 C4.2826753,3.99998144 4.57688948,3.69999814 4.57688948,3.33332715 L4.57688948,2.66667285 L12.4230559,2.66667285 L12.4230559,3.33332715 C12.4230559,3.69999814 12.7172701,3.99998144 13.0768895,3.99998144 C13.4365089,3.99998144 13.730723,3.69999814 13.730723,3.33332715 L13.730723,2.66667285 L14.6591711,2.66667285 C15.2279997,2.66667285 15.6922237,3.13999963 15.6922237,3.71998219 L15.6922237,5.66667285 L1.30772171,5.66667285 L1.30772171,3.71998219 Z M1.30772171,6.99998144 L15.6923329,6.99998144 L15.6923329,15.6133264 C15.6923329,16.193309 15.2281089,16.6666357 14.6592802,16.6666357 L2.34077435,16.6666357 C1.77194571,16.6666357 1.30772171,16.193309 1.30772171,15.6133264 L1.30772171,6.99998144 Z" id="Shape"></path>
                    </g>
                </g>
            </g>
        </g>
    </g>
</svg>