<?xml version="1.0" encoding="UTF-8"?>
<svg width="17px" height="17px" viewBox="0 0 17 17" version="1.1" xmlns="http://www.w3.org/2000/svg" xmlns:xlink="http://www.w3.org/1999/xlink">
    <title>06B987DB-54F1-44DF-A572-A62F9A15CAF2</title>
    <g id="Page-1-Duplicate" stroke="none" stroke-width="1" fill="none" fill-rule="evenodd" stroke-linecap="round" stroke-linejoin="round">
        <g id="KPIs---Project-listing-with-Org" transform="translate(-1324.000000, -421.000000)" stroke="#656565" stroke-width="2">
            <g id="Group-13" transform="translate(311.000000, 394.000000)">
                <g id="Group-12" transform="translate(13.000000, 23.000000)">
                    <g id="Group" transform="translate(1001.000000, 5.000000)">
                        <path d="M6.42857143,1.51522879 L1.42857143,1.51522879 C0.639593215,1.51522879 0,2.15482201 0,2.94380022 L0,12.9438002 C0,13.7327784 0.639593215,14.3723717 1.42857143,14.3723717 L11.4285714,14.3723717 C12.2175496,14.3723717 12.8571429,13.7327784 12.8571429,12.9438002 L12.8571429,7.94380022" id="Path"></path>
                        <path d="M11.7857143,0.443800223 C12.3774479,-0.147933416 13.3368378,-0.147933406 13.9285714,0.443800245 C14.5203051,1.0355339 14.5203051,1.9949237 13.9285714,2.58665737 L7.14285714,9.37237165 L4.28571429,10.0866574 L5,7.22951451 L11.7857143,0.443800223 Z" id="Path"></path>
                    </g>
                </g>
            </g>
        </g>
    </g>
</svg>