<?xml version="1.0" encoding="UTF-8"?>
<svg width="25px" height="18px" viewBox="0 0 25 18" version="1.1" xmlns="http://www.w3.org/2000/svg" xmlns:xlink="http://www.w3.org/1999/xlink">
    <title>B0E1BAA7-9A67-4269-8EE9-509AAE00193C</title>
    <g id="Page-1-Duplicate" stroke="none" stroke-width="1" fill="none" fill-rule="evenodd">
        <g id="KPIs---Project-listing-with-Org" transform="translate(-1349.000000, -502.000000)" fill="#656565" fill-rule="nonzero" stroke="#656565" stroke-width="0.5">
            <g id="Group-13-Copy" transform="translate(311.000000, 475.000000)">
                <g id="Group-14" transform="translate(13.000000, 25.000000)">
                    <g id="Group-11" transform="translate(1001.000000, 3.000000)">
                        <g id="view" transform="translate(24.372372, 0.000000)">
                            <path d="M23.8474917,7.51173203 C23.6330849,7.20494961 18.5244918,0 11.9998945,0 C5.47529729,0 0.366469824,7.20494961 0.152297321,7.51143784 C-0.0507657737,7.80248154 -0.0507657737,8.19722427 0.152297321,8.48826797 C0.366469824,8.79505039 5.47529729,16 11.9998945,16 C18.5244918,16 23.6330849,8.79500136 23.8474917,8.48851313 C24.0508361,8.19751846 24.0508361,7.80248154 23.8474917,7.51173203 Z M11.9998945,14.344836 C7.19383358,14.344836 3.03127451,9.56276641 1.79906777,7.99943615 C3.02968075,6.43473305 7.18352105,1.65516396 11.9998945,1.65516396 C16.8057211,1.65516396 20.9679989,6.43640007 22.2007213,8.00056385 C20.9701083,9.56521792 16.816268,14.344836 11.9998945,14.344836 Z" id="Shape"></path>
                            <path d="M11.9998945,3.0344836 C9.38229311,3.0344836 7.252615,5.262076 7.252615,8.00002452 C7.252615,10.737973 9.38229311,12.9655654 11.9998945,12.9655654 C14.6174959,12.9655654 16.7471741,10.737973 16.7471741,8.00002452 C16.7471741,5.262076 14.6174959,3.0344836 11.9998945,3.0344836 Z M11.9998945,11.3103524 C10.2547332,11.3103524 8.83507276,9.82537255 8.83507276,8.00002452 C8.83507276,6.17467648 10.25478,4.68969659 11.9998945,4.68969659 C13.745009,4.68969659 15.1647163,6.17467648 15.1647163,8.00002452 C15.1647163,9.82537255 13.7450559,11.3103524 11.9998945,11.3103524 Z" id="Shape"></path>
                        </g>
                    </g>
                </g>
            </g>
        </g>
    </g>
</svg>