<?xml version="1.0" encoding="UTF-8"?>
<svg width="28px" height="28px" viewBox="0 0 28 28" version="1.1" xmlns="http://www.w3.org/2000/svg" xmlns:xlink="http://www.w3.org/1999/xlink">
    <title>FDAEBD9D-348C-4A93-A376-FC648CFA10CB</title>
    <g id="Page-1-Duplicate" stroke="none" stroke-width="1" fill="none" fill-rule="evenodd">
        <g id="KPIs---Team-eNPS---Enter-data" transform="translate(-1074.000000, -543.000000)" fill="#AFD559" fill-rule="nonzero">
            <g id="Group-20" transform="translate(310.000000, 303.000000)">
                <g id="Group-30" transform="translate(36.000000, 24.000000)">
                    <g id="Group-29" transform="translate(0.000000, 55.000000)">
                        <g id="Group-27" transform="translate(0.000000, 128.000000)">
                            <g id="016-happy-2" transform="translate(728.000000, 33.000000)">
                                <path d="M18.8695652,8.52173913 C17.8627826,8.52173913 17.0434783,9.34104348 17.0434783,10.3478261 C17.0434783,11.3546087 17.8627826,12.173913 18.8695652,12.173913 C19.8763478,12.173913 20.6956522,11.3546087 20.6956522,10.3478261 C20.6956522,9.34104348 19.8763478,8.52173913 18.8695652,8.52173913 Z M18.8695652,10.9565217 C18.5335652,10.9565217 18.2608696,10.6832174 18.2608696,10.3478261 C18.2608696,10.0124348 18.5335652,9.73913043 18.8695652,9.73913043 C19.2055652,9.73913043 19.4782609,10.0124348 19.4782609,10.3478261 C19.4782609,10.6832174 19.2055652,10.9565217 18.8695652,10.9565217 Z" id="Shape"></path>
                                <path d="M9.13043478,12.173913 C10.1372174,12.173913 10.9565217,11.3546087 10.9565217,10.3478261 C10.9565217,9.34104348 10.1372174,8.52173913 9.13043478,8.52173913 C8.12365217,8.52173913 7.30434783,9.34104348 7.30434783,10.3478261 C7.30434783,11.3546087 8.12365217,12.173913 9.13043478,12.173913 Z M9.13043478,9.73913043 C9.46643478,9.73913043 9.73913043,10.0124348 9.73913043,10.3478261 C9.73913043,10.6832174 9.46643478,10.9565217 9.13043478,10.9565217 C8.79443478,10.9565217 8.52173913,10.6832174 8.52173913,10.3478261 C8.52173913,10.0124348 8.79443478,9.73913043 9.13043478,9.73913043 Z" id="Shape"></path>
                                <path d="M14,0 C6.27991304,0 0,6.28052174 0,14 C0,21.7194783 6.27991304,28 14,28 C21.720087,28 28,21.7194783 28,14 C28,6.28052174 21.720087,0 14,0 Z M14,26.7826087 C6.95191304,26.7826087 1.2173913,21.0486957 1.2173913,14 C1.2173913,6.95130435 6.95191304,1.2173913 14,1.2173913 C21.048087,1.2173913 26.7826087,6.95130435 26.7826087,14 C26.7826087,21.0486957 21.048087,26.7826087 14,26.7826087 Z" id="Shape"></path>
                                <path d="M20.0869565,15.826087 L7.91304348,15.826087 C7.57643478,15.826087 7.30434783,16.0987826 7.30434783,16.4347826 C7.30434783,20.1265217 10.3082609,23.1304348 14,23.1304348 C17.6917391,23.1304348 20.6956522,20.1265217 20.6956522,16.4347826 C20.6956522,16.0987826 20.4235652,15.826087 20.0869565,15.826087 Z M14,21.9130435 C11.1847826,21.9130435 8.85956522,19.7789565 8.55582609,17.0434783 L19.4441739,17.0434783 C19.1404348,19.7789565 16.8152174,21.9130435 14,21.9130435 Z" id="Shape"></path>
                            </g>
                        </g>
                    </g>
                </g>
            </g>
        </g>
    </g>
</svg>