<?xml version="1.0" encoding="UTF-8"?>
<svg width="28px" height="28px" viewBox="0 0 28 28" version="1.1" xmlns="http://www.w3.org/2000/svg" xmlns:xlink="http://www.w3.org/1999/xlink">
    <title>08262815-D692-490F-ADB9-0AFB350D6795</title>
    <g id="Page-1-Duplicate" stroke="none" stroke-width="1" fill="none" fill-rule="evenodd">
        <g id="KPIs---Team-eNPS---Enter-data" transform="translate(-1178.000000, -543.000000)" fill="#85D176" fill-rule="nonzero">
            <g id="Group-20" transform="translate(310.000000, 303.000000)">
                <g id="Group-30" transform="translate(36.000000, 24.000000)">
                    <g id="Group-29" transform="translate(0.000000, 55.000000)">
                        <g id="Group-27" transform="translate(0.000000, 128.000000)">
                            <g id="017-happy-1" transform="translate(832.000000, 33.000000)">
                                <path d="M19.8842609,17.1986957 C19.6328696,16.974087 19.2487826,16.9953913 19.0247826,17.2461739 C17.7550435,18.6650435 15.9234783,19.4782609 14,19.4782609 C12.0771304,19.4782609 10.2455652,18.6650435 8.97521739,17.2461739 C8.75121739,16.9947826 8.36530435,16.9746957 8.11573913,17.1986957 C7.86556522,17.4233043 7.84426087,17.8073913 8.06826087,18.0581739 C9.56930435,19.7345217 11.7307826,20.6956522 14,20.6956522 C16.2698261,20.6956522 18.4313043,19.733913 19.9317391,18.0581739 C20.1557391,17.8073913 20.1344348,17.4226957 19.8842609,17.1986957 Z" id="Path"></path>
                                <path d="M14,0 C6.27991304,0 0,6.28052174 0,14 C0,21.7194783 6.27991304,28 14,28 C21.720087,28 28,21.7194783 28,14 C28,6.28052174 21.720087,0 14,0 Z M14,26.7826087 C6.95191304,26.7826087 1.2173913,21.0486957 1.2173913,14 C1.2173913,6.95130435 6.95191304,1.2173913 14,1.2173913 C21.048087,1.2173913 26.7826087,6.95130435 26.7826087,14 C26.7826087,21.0486957 21.048087,26.7826087 14,26.7826087 Z" id="Shape"></path>
                                <path d="M12.173913,11.5652174 C12.173913,11.3345217 12.0436522,11.123913 11.8373043,11.0204348 L6.96773913,8.58565217 C6.66643478,8.43469565 6.30182609,8.55704348 6.15086957,8.85773913 C6.00052174,9.15843478 6.12226087,9.52426087 6.42295652,9.6746087 L10.2041739,11.5652174 L6.42356522,13.4552174 C6.12286957,13.6055652 6.00113043,13.9713913 6.15147826,14.272087 C6.258,14.4857391 6.47286957,14.6086957 6.69626087,14.6086957 C6.78756522,14.6086957 6.88069565,14.588 6.96773913,14.5447826 L11.8373043,12.11 C12.0436522,12.0065217 12.173913,11.795913 12.173913,11.5652174 Z" id="Path"></path>
                                <path d="M21.5770435,13.4552174 L17.7958261,11.5652174 L21.5764348,9.67521739 C21.8771304,9.52426087 21.9994783,9.15904348 21.8491304,8.85834783 C21.6981739,8.55704348 21.3329565,8.43530435 21.0322609,8.58626087 L16.1626957,11.0210435 C15.9563478,11.123913 15.826087,11.3345217 15.826087,11.5652174 C15.826087,11.795913 15.9563478,12.0065217 16.1626957,12.11 L21.0322609,14.5447826 C21.1193043,14.588 21.2124348,14.6086957 21.3037391,14.6086957 C21.5271304,14.6086957 21.742,14.4857391 21.8491304,14.272087 C21.9994783,13.9713913 21.8777391,13.6055652 21.5770435,13.4552174 Z" id="Path"></path>
                            </g>
                        </g>
                    </g>
                </g>
            </g>
        </g>
    </g>
</svg>