<?xml version="1.0" encoding="UTF-8"?>
<svg width="28px" height="28px" viewBox="0 0 28 28" version="1.1" xmlns="http://www.w3.org/2000/svg" xmlns:xlink="http://www.w3.org/1999/xlink">
    <title>19182EE2-967D-4F3A-9264-7B1061C35730</title>
    <g id="Page-1-Duplicate" stroke="none" stroke-width="1" fill="none" fill-rule="evenodd">
        <g id="KPIs---Team-eNPS---Enter-data" transform="translate(-1282.000000, -543.000000)" fill="#009F40" fill-rule="nonzero">
            <g id="Group-20" transform="translate(310.000000, 303.000000)">
                <g id="Group-30" transform="translate(36.000000, 24.000000)">
                    <g id="Group-29" transform="translate(0.000000, 55.000000)">
                        <g id="Group-27" transform="translate(0.000000, 128.000000)">
                            <g id="025-happy" transform="translate(936.000000, 33.000000)">
                                <path d="M14,0 C6.27991304,0 0,6.28052174 0,14 C0,21.7194783 6.27991304,28 14,28 C21.720087,28 28,21.7194783 28,14 C28,6.28052174 21.720087,0 14,0 Z M14,26.7826087 C6.95191304,26.7826087 1.2173913,21.0486957 1.2173913,14 C1.2173913,6.95130435 6.95191304,1.2173913 14,1.2173913 C21.048087,1.2173913 26.7826087,6.95130435 26.7826087,14 C26.7826087,21.0486957 21.048087,26.7826087 14,26.7826087 Z" id="Shape"></path>
                                <path d="M22.5217391,13.3913043 L5.47826087,13.3913043 C5.14165217,13.3913043 4.86956522,13.664 4.86956522,14 C4.86956522,17.0848696 6.412,19.9390435 8.99530435,21.6348696 C8.99591304,21.6348696 8.99591304,21.6354783 8.99652174,21.636087 C10.479913,22.6136522 12.2098261,23.1304348 14,23.1304348 C15.7901739,23.1304348 17.520087,22.6136522 19.004087,21.636087 C19.0046957,21.636087 19.0046957,21.6354783 19.0053043,21.6348696 C21.588,19.9390435 23.1304348,17.0848696 23.1304348,14 C23.1304348,13.664 22.8583478,13.3913043 22.5217391,13.3913043 Z M10.0824348,20.8746087 C10.0988696,20.8356522 10.1116522,20.7936522 10.1293043,20.7553043 C10.1682609,20.6706957 10.2126957,20.5891304 10.2571304,20.5075652 C10.3173913,20.3967826 10.3806957,20.2878261 10.4506957,20.1831304 C10.5030435,20.1046087 10.5584348,20.0285217 10.6156522,19.9542609 C10.6905217,19.8562609 10.7696522,19.761913 10.8524348,19.6712174 C10.9163478,19.6012174 10.9808696,19.5330435 11.0490435,19.467913 C11.1373043,19.3826957 11.2310435,19.3029565 11.326,19.2262609 C11.3984348,19.1678261 11.4708696,19.1087826 11.5469565,19.0546087 C11.6486087,18.9827826 11.7557391,18.9182609 11.8628696,18.8555652 C11.9413913,18.8093043 12.0193043,18.7612174 12.1008696,18.7204348 C12.2171304,18.662 12.3382609,18.613913 12.4593913,18.5664348 C12.5397391,18.5347826 12.6182609,18.4988696 12.7010435,18.472087 C12.8386087,18.4276522 12.9804348,18.3966087 13.1228696,18.3661739 C13.1946957,18.3509565 13.2646957,18.3284348 13.3371304,18.3168696 C13.5544348,18.2809565 13.7753913,18.2608696 14,18.2608696 C14.2246087,18.2608696 14.4455652,18.2809565 14.6628696,18.3156522 C14.735913,18.3272174 14.8053043,18.3497391 14.8771304,18.3649565 C15.0195652,18.3953913 15.1613913,18.4264348 15.2989565,18.4708696 C15.3811304,18.4976522 15.4596522,18.5335652 15.54,18.5652174 C15.6611304,18.6126957 15.7822609,18.6607826 15.8985217,18.7192174 C15.980087,18.76 16.0573913,18.808087 16.1365217,18.8543478 C16.2442609,18.9176522 16.3507826,18.9815652 16.4524348,19.0533913 C16.5285217,19.1075652 16.6009565,19.166 16.6733913,19.2250435 C16.7689565,19.3023478 16.862087,19.382087 16.9503478,19.4673043 C17.0185217,19.5324348 17.0830435,19.6006087 17.1463478,19.6706087 C17.2291304,19.7613043 17.3082609,19.8556522 17.3831304,19.9536522 C17.4403478,20.027913 17.4957391,20.104 17.5474783,20.1825217 C17.6168696,20.2872174 17.6801739,20.3961739 17.7410435,20.5069565 C17.7854783,20.5885217 17.829913,20.670087 17.8688696,20.7546957 C17.8865217,20.7930435 17.8993043,20.8350435 17.9157391,20.874 C15.5436522,22.2350435 12.4563478,22.2350435 10.0824348,20.8746087 Z M18.949913,20.1727826 C18.9474783,20.1673043 18.9432174,20.1624348 18.9407826,20.1569565 C18.8397391,19.9481739 18.724087,19.7491304 18.5986957,19.5567826 C18.578,19.5251304 18.557913,19.4928696 18.5366087,19.4612174 C18.4106087,19.2767826 18.2742609,19.1008696 18.1275652,18.9334783 C18.1013913,18.9036522 18.0752174,18.8750435 18.0484348,18.8464348 C17.8962609,18.6802609 17.7361739,18.522 17.5657391,18.375913 C17.5450435,18.3582609 17.5237391,18.3424348 17.5030435,18.3253913 C17.3283478,18.179913 17.1463478,18.0441739 16.9558261,17.9212174 C16.9454783,17.9145217 16.9351304,17.9066087 16.9247826,17.899913 C16.7312174,17.7769565 16.5285217,17.6698261 16.3209565,17.5712174 C16.2874783,17.5553913 16.2552174,17.5389565 16.2217391,17.5237391 C16.0196522,17.4330435 15.8114783,17.3557391 15.5984348,17.2893913 C15.5588696,17.2772174 15.5193043,17.2656522 15.4797391,17.2546957 C15.2636522,17.1932174 15.0433043,17.1426957 14.8193043,17.1086087 C14.7870435,17.1037391 14.7541739,17.1006957 14.721913,17.0964348 C14.4833043,17.0641739 14.2434783,17.0434783 14,17.0434783 C13.7565217,17.0434783 13.5166957,17.0641739 13.2793043,17.0964348 C13.2470435,17.1006957 13.2141739,17.1037391 13.181913,17.1086087 C12.9573043,17.1433043 12.7375652,17.1932174 12.5214783,17.2546957 C12.481913,17.2662609 12.4423478,17.2772174 12.4027826,17.2893913 C12.1897391,17.3551304 11.9815652,17.4330435 11.7794783,17.5237391 C11.746,17.5389565 11.7137391,17.5553913 11.6802609,17.5712174 C11.4726957,17.6692174 11.27,17.7769565 11.0764348,17.899913 C11.066087,17.9066087 11.0557391,17.9145217 11.0453913,17.9212174 C10.8542609,18.0441739 10.6722609,18.179913 10.4981739,18.3253913 C10.4774783,18.3424348 10.4555652,18.3582609 10.4354783,18.375913 C10.2650435,18.522 10.1049565,18.6802609 9.95278261,18.8464348 C9.926,18.8756522 9.89982609,18.9042609 9.87365217,18.9334783 C9.72695652,19.1008696 9.5906087,19.2767826 9.4646087,19.4612174 C9.44330435,19.4928696 9.42321739,19.5245217 9.40252174,19.5567826 C9.27713043,19.7491304 9.16147826,19.9481739 9.06043478,20.1569565 C9.058,20.1624348 9.05373913,20.1673043 9.05130435,20.1727826 C7.34086957,18.8026087 6.27808696,16.7951304 6.11130435,14.6086957 L21.8911304,14.6086957 C21.7225217,16.7951304 20.6597391,18.8026087 18.949913,20.1727826 Z" id="Shape"></path>
                                <path d="M7.30434783,8.52173913 L8.52173913,8.52173913 L8.52173913,10.3478261 C8.52173913,10.6838261 8.79382609,10.9565217 9.13043478,10.9565217 C9.46704348,10.9565217 9.73913043,10.6838261 9.73913043,10.3478261 L9.73913043,8.52173913 L10.9565217,8.52173913 C11.2931304,8.52173913 11.5652174,8.24904348 11.5652174,7.91304348 C11.5652174,7.57704348 11.2931304,7.30434783 10.9565217,7.30434783 L9.73913043,7.30434783 L9.73913043,5.47826087 C9.73913043,5.14226087 9.46704348,4.86956522 9.13043478,4.86956522 C8.79382609,4.86956522 8.52173913,5.14226087 8.52173913,5.47826087 L8.52173913,7.30434783 L7.30434783,7.30434783 C6.96773913,7.30434783 6.69565217,7.57704348 6.69565217,7.91304348 C6.69565217,8.24904348 6.96773913,8.52173913 7.30434783,8.52173913 Z" id="Path"></path>
                                <path d="M17.0434783,8.52173913 L18.2608696,8.52173913 L18.2608696,10.3478261 C18.2608696,10.6838261 18.5329565,10.9565217 18.8695652,10.9565217 C19.2061739,10.9565217 19.4782609,10.6838261 19.4782609,10.3478261 L19.4782609,8.52173913 L20.6956522,8.52173913 C21.0322609,8.52173913 21.3043478,8.24904348 21.3043478,7.91304348 C21.3043478,7.57704348 21.0322609,7.30434783 20.6956522,7.30434783 L19.4782609,7.30434783 L19.4782609,5.47826087 C19.4782609,5.14226087 19.2061739,4.86956522 18.8695652,4.86956522 C18.5329565,4.86956522 18.2608696,5.14226087 18.2608696,5.47826087 L18.2608696,7.30434783 L17.0434783,7.30434783 C16.7068696,7.30434783 16.4347826,7.57704348 16.4347826,7.91304348 C16.4347826,8.24904348 16.7068696,8.52173913 17.0434783,8.52173913 Z" id="Path"></path>
                            </g>
                        </g>
                    </g>
                </g>
            </g>
        </g>
    </g>
</svg>