<?xml version="1.0" encoding="UTF-8"?>
<svg width="22px" height="16px" viewBox="0 0 22 16" version="1.1" xmlns="http://www.w3.org/2000/svg" xmlns:xlink="http://www.w3.org/1999/xlink">
    <title>9F0F809B-1678-43B5-9E63-344104DA3A46@1.5x</title>
    <g id="Page-1-Duplicate" stroke="none" stroke-width="1" fill="none" fill-rule="evenodd">
        <g id="KPIs---cNPS" transform="translate(-338.000000, -480.000000)" fill="#000000" fill-rule="nonzero">
            <g id="Group-26" transform="translate(310.000000, 313.000000)">
                <g id="Group-22" transform="translate(12.000000, 61.000000)">
                    <g id="Group-25" transform="translate(16.000000, 24.000000)">
                        <g id="Group-23" transform="translate(0.000000, 79.000000)">
                            <g id="email" transform="translate(0.000000, 3.000000)">
                                <path d="M19.8340264,16 L2.16597362,16 C0.97022611,15.9985632 0.00125465512,14.981439 0,13.726389 L0,2.27361104 C0.00125465512,1.018561 0.97022611,0.0014368016 2.16597362,0 L19.8340264,0 C21.0297739,0.0014368016 21.9987453,1.018561 22,2.27361104 L22,13.726389 C21.9987453,14.981439 21.0297739,15.9985632 19.8340264,16 Z M2.16597362,0.868951284 C1.42722209,0.8697896 0.828576893,1.49822144 0.827892449,2.27361104 L0.827892449,13.726389 C0.828576893,14.5017786 1.42722209,15.1302104 2.16597362,15.1310487 L19.8340264,15.1310487 C20.5727779,15.1302104 21.1714231,14.5017786 21.1721076,13.726389 L21.1721076,2.27361104 C21.1714231,1.49822144 20.5727779,0.8697896 19.8340264,0.868951284 L2.16597362,0.868951284 Z" id="Shape"></path>
                                <path d="M11,10.5568958 C10.8990959,10.5568958 10.8016457,10.5183221 10.7259676,10.4482702 L0.749863586,1.20523543 L1.29772141,0.553521968 L11,9.54369196 L20.7026925,0.554608157 L21.2505504,1.20632162 L11.2744463,10.4493564 C11.1985703,10.5192194 11.1009324,10.5574756 11,10.5568958 L11,10.5568958 Z" id="Path"></path>
                                <polygon id="Path" transform="translate(4.186980, 10.914988) rotate(-48.727883) translate(-4.186980, -10.914988) " points="-1.02510632 10.6167797 9.41943415 10.3669723 9.39906707 11.213197 -1.0454734 11.4630043"></polygon>
                                <polygon id="Path" transform="translate(17.834208, 10.906619) rotate(-41.272117) translate(-17.834208, -10.906619) " points="17.5360022 5.69442631 18.3822269 5.67405923 18.1324144 16.1188126 17.2861897 16.1391797"></polygon>
                            </g>
                        </g>
                    </g>
                </g>
            </g>
        </g>
    </g>
</svg>