<?xml version="1.0" encoding="UTF-8"?>
<svg width="28px" height="28px" viewBox="0 0 28 28" version="1.1" xmlns="http://www.w3.org/2000/svg" xmlns:xlink="http://www.w3.org/1999/xlink">
    <title>FCD606C9-FBC4-46B9-9852-AB7B77128951</title>
    <g id="Page-1-Duplicate" stroke="none" stroke-width="1" fill="none" fill-rule="evenodd">
        <g id="KPIs---Team-eNPS---Enter-data" transform="translate(-450.000000, -543.000000)" fill="#FD6448" fill-rule="nonzero">
            <g id="Group-20" transform="translate(310.000000, 303.000000)">
                <g id="Group-30" transform="translate(36.000000, 24.000000)">
                    <g id="Group-29" transform="translate(0.000000, 55.000000)">
                        <g id="Group-27" transform="translate(0.000000, 128.000000)">
                            <g id="011-pain" transform="translate(104.000000, 33.000000)">
                                <path d="M14,17.0434783 C11.7307826,17.0434783 9.56869565,18.0046087 8.06826087,19.6809565 C7.84426087,19.9317391 7.86556522,20.3164348 8.11573913,20.5404348 C8.36652174,20.7650435 8.7506087,20.7431304 8.97521739,20.4929565 C10.2449565,19.074087 12.0765217,18.2608696 14,18.2608696 C15.924087,18.2608696 17.7550435,19.074087 19.0247826,20.4929565 C19.1446957,20.6274783 19.3114783,20.6956522 19.4782609,20.6956522 C19.6225217,20.6956522 19.768,20.6445217 19.8842609,20.5404348 C20.1350435,20.3164348 20.1557391,19.9317391 19.9317391,19.6809565 C18.431913,18.0052174 16.2698261,17.0434783 14,17.0434783 Z" id="Path"></path>
                                <path d="M14,0 C6.28052174,0 0,6.28052174 0,14 C0,21.7194783 6.28052174,28 14,28 C21.7194783,28 28,21.7194783 28,14 C28,6.28052174 21.7194783,0 14,0 Z M14,26.7826087 C6.95130435,26.7826087 1.2173913,21.0486957 1.2173913,14 C1.2173913,6.95130435 6.95130435,1.2173913 14,1.2173913 C21.0486957,1.2173913 26.7826087,6.95130435 26.7826087,14 C26.7826087,21.0486957 21.0486957,26.7826087 14,26.7826087 Z" id="Shape"></path>
                                <path d="M12.173913,11.5652174 C12.173913,11.3345217 12.0436522,11.123913 11.8373043,11.0204348 L6.96773913,8.58565217 C6.66582609,8.43530435 6.30121739,8.55765217 6.15086957,8.85773913 C6.00052174,9.15843478 6.12226087,9.52426087 6.42295652,9.6746087 L10.2041739,11.5652174 L6.42356522,13.4552174 C6.12286957,13.6055652 6.00113043,13.9713913 6.15147826,14.272087 C6.258,14.4857391 6.47286957,14.6086957 6.69626087,14.6086957 C6.78756522,14.6086957 6.88069565,14.588 6.96773913,14.5447826 L11.8373043,12.11 C12.0436522,12.0065217 12.173913,11.795913 12.173913,11.5652174 Z" id="Path"></path>
                                <path d="M21.5770435,13.4552174 L17.7958261,11.5652174 L21.5764348,9.67521739 C21.8771304,9.52426087 21.9994783,9.15904348 21.8491304,8.85834783 C21.6987826,8.55765217 21.3335652,8.43591304 21.0322609,8.58626087 L16.1626957,11.0210435 C15.9563478,11.123913 15.826087,11.3345217 15.826087,11.5652174 C15.826087,11.795913 15.9563478,12.0065217 16.1626957,12.11 L21.0322609,14.5447826 C21.1193043,14.588 21.2124348,14.6086957 21.3037391,14.6086957 C21.5271304,14.6086957 21.742,14.4857391 21.8491304,14.272087 C21.9994783,13.9713913 21.8777391,13.6055652 21.5770435,13.4552174 Z" id="Path"></path>
                            </g>
                        </g>
                    </g>
                </g>
            </g>
        </g>
    </g>
</svg>