<?xml version="1.0" encoding="UTF-8"?>
<svg width="20px" height="21px" viewBox="0 0 20 21" version="1.1" xmlns="http://www.w3.org/2000/svg" xmlns:xlink="http://www.w3.org/1999/xlink">
    <title>9CF77A84-B7F7-4DEC-8FE8-2F7445029323@</title>
    <g id="Page-1-Duplicate" stroke="none" stroke-width="1" fill="none" fill-rule="evenodd">
        <g id="KPIs---cNPS" transform="translate(-338.000000, -515.000000)" fill="#000000" fill-rule="nonzero">
            <g id="Group-26" transform="translate(310.000000, 313.000000)">
                <g id="Group-22" transform="translate(12.000000, 61.000000)">
                    <g id="Group-25" transform="translate(16.000000, 24.000000)">
                        <g id="telephone" transform="translate(0.000000, 117.000000)">
                            <path d="M4.05290995,13.9593867 C6.03303598,16.4353502 8.41667508,18.3847907 11.1372684,19.7641939 C12.1730906,20.2776627 13.5583469,20.8868628 15.1016804,20.9912971 C15.1973588,20.9956486 15.2888772,21 15.3845555,21 C16.4203778,21 17.2523635,20.625777 17.9304319,19.855574 C17.9345918,19.8512225 17.9429116,19.8425197 17.9470716,19.8338168 C18.1883474,19.5292167 18.4629027,19.2550767 18.7499378,18.9635309 C18.9454544,18.7677165 19.145131,18.5631993 19.3364877,18.3543307 C20.2225525,17.3883133 20.2225525,16.1612101 19.3281679,15.2256527 L16.8280508,12.6104434 C16.4037381,12.1491919 15.8962268,11.9055118 15.3637559,11.9055118 C14.831285,11.9055118 14.3196138,12.1491919 13.8828213,12.606092 L12.3935669,14.1639039 C12.2562892,14.0812267 12.1148516,14.0072524 11.9817339,13.9376295 C11.8153368,13.8506009 11.6614194,13.7679237 11.5241418,13.6765437 C10.168005,12.7757978 8.93666616,11.6009117 7.75940636,10.0909656 C7.16453656,9.30335682 6.76518342,8.64193949 6.4864682,7.96746788 C6.87750149,7.59759635 7.24357521,7.2103191 7.59716914,6.83174472 C7.721967,6.69685039 7.85092479,6.56195607 7.97988258,6.42706175 C8.42915487,5.95710734 8.67043073,5.41317862 8.67043073,4.86054704 C8.67043073,4.30791546 8.4333148,3.76398674 7.97988258,3.29403232 L6.74022384,1.99730626 C6.59462634,1.84500622 6.4573487,1.6970576 6.31591112,1.54475756 C6.04135583,1.24886034 5.75432076,0.944260257 5.47144561,0.670120182 C5.04297296,0.230625777 4.5396216,0 4.00715073,0 C3.4788398,0 2.9713285,0.230625777 2.52621614,0.674471612 L0.970402833,2.30190634 C0.404652539,2.89370079 0.0843380341,3.6116867 0.017779176,4.44280978 C-0.061259468,5.48280149 0.121777392,6.58806465 0.596009256,7.92395358 C1.32399677,9.99088272 2.42221792,11.9098632 4.05290995,13.9593867 Z M1.03280176,4.53418981 C1.08272091,3.95544965 1.29487727,3.47244094 1.69423041,3.05470369 L3.24172387,1.43597182 C3.48299973,1.19229175 3.74923516,1.06610029 4.00715073,1.06610029 C4.26090638,1.06610029 4.51882195,1.19229175 4.75593789,1.44467468 C5.03465311,1.71446332 5.29672861,1.99730626 5.57960376,2.29755491 C5.72104133,2.44985495 5.86663883,2.60215499 6.01223633,2.75880646 L7.25189507,4.05553253 C7.50981064,4.32532118 7.64292836,4.59946125 7.64292836,4.8692499 C7.64292836,5.13903854 7.50981064,5.41317862 7.25189507,5.68296726 C7.12293728,5.81786158 6.99397949,5.95710734 6.8650217,6.09200166 C6.47814834,6.50103605 6.11623455,6.8883133 5.7168814,7.25818483 C5.70856154,7.26688769 5.70440161,7.27123912 5.69608176,7.27994198 C5.35080768,7.64111065 5.40488675,7.9848736 5.48808533,8.24595939 C5.49224525,8.25901368 5.49640518,8.26771654 5.50056511,8.28077082 C5.82087962,9.08578533 6.26599198,9.85163697 6.96070006,10.7654372 C8.20867865,12.3754662 9.5232161,13.6243266 10.9708713,14.5859925 C11.1497482,14.7078326 11.3411049,14.803564 11.5199818,14.8992955 C11.686379,14.9863241 11.8402963,15.0690012 11.977574,15.1603813 C11.9942137,15.1690841 12.0066935,15.177787 12.0233332,15.1864898 C12.1606109,15.2604642 12.2937286,15.2952756 12.4268463,15.2952756 C12.7596406,15.2952756 12.9759569,15.0733527 13.0466756,14.9993784 L14.602489,13.3719436 C14.8437648,13.1195607 15.1058403,12.9846664 15.3637559,12.9846664 C15.6799105,12.9846664 15.937826,13.1891836 16.1000633,13.3719436 L18.6085002,15.9915044 C19.1076917,16.5136759 19.1035317,17.0793618 18.5960204,17.6319934 C18.4213034,17.8278077 18.2382666,18.0149192 18.0427499,18.2107335 C17.7515549,18.5066308 17.4478801,18.8112308 17.1733249,19.1549938 C16.6949331,19.6945711 16.1250228,19.946954 15.3887155,19.946954 C15.3179967,19.946954 15.243118,19.9426026 15.1723992,19.9382511 C13.8079426,19.8468711 12.5391644,19.2898881 11.5865407,18.8155823 C8.99906509,17.5058019 6.72774406,15.6477414 4.84329639,13.2892665 C3.29164301,11.3354745 2.24750092,9.51657688 1.55695277,7.56713634 C1.12848012,6.37049316 0.966242904,5.40882719 1.03280176,4.53418981 Z" id="Shape"></path>
                        </g>
                    </g>
                </g>
            </g>
        </g>
    </g>
</svg>