<?xml version="1.0" encoding="UTF-8"?>
<svg width="14px" height="14px" viewBox="0 0 14 14" version="1.1" xmlns="http://www.w3.org/2000/svg" xmlns:xlink="http://www.w3.org/1999/xlink">
    <title>34A75414-F5BD-49F1-BAE1-0BB40DBE14FF</title>
    <g id="Page-1-Duplicate" stroke="none" stroke-width="1" fill="none" fill-rule="evenodd">
        <g id="KPIs---Revenue---Enter-data-Copy" transform="translate(-1263.000000, -329.000000)" fill="#1D4CC4" fill-rule="nonzero">
            <g id="Group-18" transform="translate(310.000000, 303.000000)">
                <g id="Group-17" transform="translate(30.500000, 24.000000)">
                    <g id="Group-37" transform="translate(922.500000, 0.000000)">
                        <g id="edit" transform="translate(0.000000, 2.000000)">
                            <path d="M13.3192146,0.680785331 C14.2269285,1.5884991 14.2269285,3.06019392 13.3192146,3.96790771 L4.73486826,12.5522541 C4.36251136,12.924611 3.89595725,13.1887695 3.38508782,13.3164868 L0.722549686,13.9821213 C0.296973191,14.0885155 -0.0885154848,13.7030268 0.0178786418,13.2774503 L0.683513169,10.6149122 C0.811230537,10.1040427 1.07538897,9.63748863 1.44774587,9.26513175 L10.0320923,0.680785331 C10.9398061,-0.226928444 12.411501,-0.226928444 13.3192146,0.680785331 Z M9.21022312,3.14600301 L2.26952647,10.0869123 C2.04611233,10.3103265 1.88761726,10.590259 1.81098684,10.8967806 L1.38024266,12.6197573 L3.10321939,12.1890132 C3.40974106,12.1123827 3.68967352,11.9538876 3.91308766,11.7304735 L10.8535361,4.789316 L9.21022312,3.14600301 Z M10.8538729,1.50256592 L10.0318796,2.32434651 L11.6751926,3.9676595 L12.4974341,3.1461271 C12.951291,2.69227022 12.951291,1.95642281 12.4974341,1.50256592 C12.0435772,1.04870903 11.3077298,1.04870903 10.8538729,1.50256592 Z" id="Shape"></path>
                        </g>
                    </g>
                </g>
            </g>
        </g>
    </g>
</svg>