<?xml version="1.0" encoding="UTF-8"?>
<svg width="28px" height="28px" viewBox="0 0 28 28" version="1.1" xmlns="http://www.w3.org/2000/svg" xmlns:xlink="http://www.w3.org/1999/xlink">
    <title>21D56DEE-A07F-4C56-92FC-932E4F50EF8B</title>
    <g id="Page-1-Duplicate" stroke="none" stroke-width="1" fill="none" fill-rule="evenodd">
        <g id="KPIs---Team-eNPS---Enter-data" transform="translate(-554.000000, -543.000000)" fill="#FF8945" fill-rule="nonzero">
            <g id="Group-20" transform="translate(310.000000, 303.000000)">
                <g id="Group-30" transform="translate(36.000000, 24.000000)">
                    <g id="Group-29" transform="translate(0.000000, 55.000000)">
                        <g id="Group-27" transform="translate(0.000000, 128.000000)">
                            <g id="024-sad" transform="translate(208.000000, 33.000000)">
                                <path d="M14,0 C6.28052174,0 0,6.28052174 0,14 C0,21.7194783 6.28052174,28 14,28 C21.720087,28 28,21.7194783 28,14 C28,6.28052174 21.720087,0 14,0 Z M14,26.7826087 C6.95130435,26.7826087 1.2173913,21.0486957 1.2173913,14 C1.2173913,6.95130435 6.95130435,1.2173913 14,1.2173913 C21.048087,1.2173913 26.7826087,6.95130435 26.7826087,14 C26.7826087,21.0486957 21.048087,26.7826087 14,26.7826087 Z" id="Shape"></path>
                                <path d="M10.9565217,12.7826087 C10.9565217,11.7758261 10.1372174,10.9565217 9.13043478,10.9565217 C8.12365217,10.9565217 7.30434783,11.7758261 7.30434783,12.7826087 C7.30434783,13.7893913 8.12365217,14.6086957 9.13043478,14.6086957 C10.1372174,14.6086957 10.9565217,13.7893913 10.9565217,12.7826087 Z M8.52173913,12.7826087 C8.52173913,12.4472174 8.79504348,12.173913 9.13043478,12.173913 C9.46582609,12.173913 9.73913043,12.4472174 9.73913043,12.7826087 C9.73913043,13.118 9.46582609,13.3913043 9.13043478,13.3913043 C8.79504348,13.3913043 8.52173913,13.118 8.52173913,12.7826087 Z" id="Shape"></path>
                                <path d="M18.8695652,10.9565217 C17.8627826,10.9565217 17.0434783,11.7758261 17.0434783,12.7826087 C17.0434783,13.7893913 17.8627826,14.6086957 18.8695652,14.6086957 C19.8763478,14.6086957 20.6956522,13.7893913 20.6956522,12.7826087 C20.6956522,11.7758261 19.8763478,10.9565217 18.8695652,10.9565217 Z M18.8695652,13.3913043 C18.5335652,13.3913043 18.2608696,13.118 18.2608696,12.7826087 C18.2608696,12.4472174 18.5335652,12.173913 18.8695652,12.173913 C19.2055652,12.173913 19.4782609,12.4472174 19.4782609,12.7826087 C19.4782609,13.118 19.2055652,13.3913043 18.8695652,13.3913043 Z" id="Shape"></path>
                                <path d="M16.4353913,8.52173913 C16.5266957,8.52173913 16.6198261,8.50104348 16.7068696,8.45782609 L19.1416522,7.24043478 C19.4423478,7.09008696 19.564087,6.72426087 19.4137391,6.42356522 C19.2627826,6.12286957 18.8969565,6.00052174 18.5968696,6.15147826 L16.162087,7.36886957 C15.8613913,7.51921739 15.7396522,7.88504348 15.89,8.18573913 C15.9971304,8.39878261 16.212,8.52173913 16.4353913,8.52173913 Z" id="Path"></path>
                                <path d="M8.85834783,7.24043478 L11.2931304,8.45782609 C11.3801739,8.50104348 11.4733043,8.52173913 11.5646087,8.52173913 C11.788,8.52173913 12.0028696,8.39878261 12.11,8.18513043 C12.2603478,7.88443478 12.1386087,7.5186087 11.837913,7.36826087 L9.40313043,6.15086957 C9.10121739,5.99991304 8.7366087,6.12286957 8.58626087,6.42295652 C8.43530435,6.72426087 8.55765217,7.08947826 8.85834783,7.24043478 Z" id="Path"></path>
                                <path d="M14,17.0434783 C11.7301739,17.0434783 9.56808696,18.0052174 8.06826087,19.6809565 C7.84426087,19.9317391 7.86556522,20.3164348 8.11573913,20.5404348 C8.36652174,20.7650435 8.75121739,20.7431304 8.97521739,20.4929565 C10.2449565,19.074087 12.075913,18.2608696 14,18.2608696 C15.9228696,18.2608696 17.7544348,19.074087 19.0247826,20.4929565 C19.1446957,20.6274783 19.3114783,20.6956522 19.4782609,20.6956522 C19.6231304,20.6956522 19.7686087,20.6445217 19.8842609,20.5404348 C20.1344348,20.3158261 20.1557391,19.9317391 19.9317391,19.6809565 C18.4306957,18.0046087 16.2692174,17.0434783 14,17.0434783 Z" id="Path"></path>
                            </g>
                        </g>
                    </g>
                </g>
            </g>
        </g>
    </g>
</svg>