<?xml version="1.0" encoding="UTF-8"?>
<svg width="28px" height="28px" viewBox="0 0 28 28" version="1.1" xmlns="http://www.w3.org/2000/svg" xmlns:xlink="http://www.w3.org/1999/xlink">
    <title>4D98A7DE-35EB-4521-84D6-85C3E6EE627A</title>
    <g id="Page-1-Duplicate" stroke="none" stroke-width="1" fill="none" fill-rule="evenodd">
        <g id="KPIs---Team-eNPS---Enter-data" transform="translate(-346.000000, -543.000000)" fill="#EF3A4A" fill-rule="nonzero">
            <g id="Group-20" transform="translate(310.000000, 303.000000)">
                <g id="Group-30" transform="translate(36.000000, 24.000000)">
                    <g id="Group-29" transform="translate(0.000000, 55.000000)">
                        <g id="Group-27" transform="translate(0.000000, 128.000000)">
                            <g id="007-sceptic" transform="translate(0.000000, 33.000000)">
                                <path d="M14,0 C6.27991304,0 0,6.28052174 0,14 C0,21.7194783 6.27991304,28 14,28 C21.720087,28 28,21.7194783 28,14 C28,6.28052174 21.720087,0 14,0 Z M14,26.7826087 C6.95191304,26.7826087 1.2173913,21.0486957 1.2173913,14 C1.2173913,6.95130435 6.95191304,1.2173913 14,1.2173913 C21.048087,1.2173913 26.7826087,6.95130435 26.7826087,14 C26.7826087,21.0486957 21.048087,26.7826087 14,26.7826087 Z" id="Shape"></path>
                                <path d="M11.1342609,14.4303478 C11.2529565,14.5490435 11.4087826,14.6086957 11.5646087,14.6086957 C11.7204348,14.6086957 11.8762609,14.5490435 11.9949565,14.4303478 C12.2329565,14.1923478 12.2329565,13.8076522 11.9949565,13.5696522 L9.98991304,11.5652174 L11.9943478,9.5613913 C12.2323478,9.3233913 12.2323478,8.93869565 11.9943478,8.70069565 C11.7563478,8.46269565 11.3716522,8.46269565 11.1336522,8.70069565 L9.12921739,10.7051304 L7.12478261,8.70069565 C6.88678261,8.46269565 6.50208696,8.46269565 6.26408696,8.70069565 C6.02608696,8.93869565 6.02608696,9.3233913 6.26408696,9.5613913 L8.26852174,11.5652174 L6.26347826,13.5696522 C6.02547826,13.8076522 6.02547826,14.1923478 6.26347826,14.4303478 C6.38217391,14.5490435 6.538,14.6086957 6.69382609,14.6086957 C6.84965217,14.6086957 7.00547826,14.5490435 7.12417391,14.4303478 L9.12921739,12.4253043 L11.1342609,14.4303478 Z" id="Path"></path>
                                <path d="M19.7302609,11.5652174 L21.7346957,9.5613913 C21.9726957,9.3233913 21.9726957,8.93869565 21.7346957,8.70069565 C21.4966957,8.46269565 21.112,8.46269565 20.874,8.70069565 L18.8695652,10.7051304 L16.8651304,8.70069565 C16.6271304,8.46269565 16.2424348,8.46269565 16.0044348,8.70069565 C15.7664348,8.93869565 15.7664348,9.3233913 16.0044348,9.5613913 L18.0088696,11.5652174 L16.0038261,13.5696522 C15.7658261,13.8076522 15.7658261,14.1923478 16.0038261,14.4303478 C16.1225217,14.5490435 16.2783478,14.6086957 16.4341739,14.6086957 C16.59,14.6086957 16.7458261,14.5490435 16.8645217,14.4303478 L18.8695652,12.4253043 L20.8746087,14.4303478 C20.9933043,14.5490435 21.1491304,14.6086957 21.3049565,14.6086957 C21.4607826,14.6086957 21.6166087,14.5490435 21.7353043,14.4303478 C21.9733043,14.1923478 21.9733043,13.8076522 21.7353043,13.5696522 L19.7302609,11.5652174 Z" id="Path"></path>
                                <path d="M18.8689565,18.2608696 L9.12982609,18.2608696 C8.79321739,18.2608696 8.52113043,18.5335652 8.52113043,18.8695652 C8.52113043,19.2055652 8.79321739,19.4782609 9.12982609,19.4782609 L18.8689565,19.4782609 C19.2055652,19.4782609 19.4776522,19.2055652 19.4776522,18.8695652 C19.4776522,18.5335652 19.2055652,18.2608696 18.8689565,18.2608696 Z" id="Path"></path>
                            </g>
                        </g>
                    </g>
                </g>
            </g>
        </g>
    </g>
</svg>