<?xml version="1.0" encoding="UTF-8"?>
<svg width="28px" height="28px" viewBox="0 0 28 28" version="1.1" xmlns="http://www.w3.org/2000/svg" xmlns:xlink="http://www.w3.org/1999/xlink">
    <title>81075DA3-FCB4-4896-9C66-25BA090B9FD8</title>
    <g id="Page-1-Duplicate" stroke="none" stroke-width="1" fill="none" fill-rule="evenodd">
        <g id="KPIs---Team-eNPS---Enter-data" transform="translate(-970.000000, -543.000000)" fill="#CECE24" fill-rule="nonzero">
            <g id="Group-20" transform="translate(310.000000, 303.000000)">
                <g id="Group-30" transform="translate(36.000000, 24.000000)">
                    <g id="Group-29" transform="translate(0.000000, 55.000000)">
                        <g id="Group-27" transform="translate(0.000000, 128.000000)">
                            <g id="003-smile-1" transform="translate(624.000000, 33.000000)">
                                <path d="M19.8842609,17.1986957 C19.6334783,16.974087 19.2481739,16.996 19.0247826,17.2461739 C17.7550435,18.6650435 15.924087,19.4782609 14,19.4782609 C12.0765217,19.4782609 10.2449565,18.6650435 8.97521739,17.2461739 C8.7506087,16.996 8.36652174,16.974087 8.11573913,17.1986957 C7.86495652,17.4226957 7.84426087,17.8073913 8.06826087,18.0581739 C9.56869565,19.7345217 11.7307826,20.6956522 14,20.6956522 C16.2698261,20.6956522 18.431913,19.733913 19.9317391,18.0581739 C20.1557391,17.8073913 20.1344348,17.4226957 19.8842609,17.1986957 Z" id="Path"></path>
                                <path d="M14,0 C6.28052174,0 0,6.28052174 0,14 C0,21.7194783 6.28052174,28 14,28 C21.7194783,28 28,21.7194783 28,14 C28,6.28052174 21.7194783,0 14,0 Z M14,26.7826087 C6.95130435,26.7826087 1.2173913,21.0486957 1.2173913,14 C1.2173913,6.95130435 6.95130435,1.2173913 14,1.2173913 C21.0486957,1.2173913 26.7826087,6.95130435 26.7826087,14 C26.7826087,21.0486957 21.0486957,26.7826087 14,26.7826087 Z" id="Shape"></path>
                                <path d="M18.8695652,9.73913043 C17.1913913,9.73913043 15.826087,11.1044348 15.826087,12.7826087 C15.826087,13.1186087 16.0987826,13.3913043 16.4347826,13.3913043 C16.7707826,13.3913043 17.0434783,13.1186087 17.0434783,12.7826087 C17.0434783,11.7758261 17.8627826,10.9565217 18.8695652,10.9565217 C19.8763478,10.9565217 20.6956522,11.7758261 20.6956522,12.7826087 C20.6956522,13.1186087 20.9683478,13.3913043 21.3043478,13.3913043 C21.6403478,13.3913043 21.9130435,13.1186087 21.9130435,12.7826087 C21.9130435,11.1044348 20.5477391,9.73913043 18.8695652,9.73913043 Z" id="Path"></path>
                                <path d="M10.9565217,12.7826087 C10.9565217,13.1186087 11.2292174,13.3913043 11.5652174,13.3913043 C11.9012174,13.3913043 12.173913,13.1186087 12.173913,12.7826087 C12.173913,11.1044348 10.8086087,9.73913043 9.13043478,9.73913043 C7.45226087,9.73913043 6.08695652,11.1044348 6.08695652,12.7826087 C6.08695652,13.1186087 6.35965217,13.3913043 6.69565217,13.3913043 C7.03165217,13.3913043 7.30434783,13.1186087 7.30434783,12.7826087 C7.30434783,11.7758261 8.12365217,10.9565217 9.13043478,10.9565217 C10.1372174,10.9565217 10.9565217,11.7758261 10.9565217,12.7826087 Z" id="Path"></path>
                            </g>
                        </g>
                    </g>
                </g>
            </g>
        </g>
    </g>
</svg>